<svg xmlns="http://www.w3.org/2000/svg" width="21" height="21" viewBox="0 0 21 21">
  <g id="linkedin" transform="translate(-1267 -4145)">
    <rect id="Rechteck_554" data-name="Rechteck 554" width="21" height="21" transform="translate(1267 4145)" fill="#fff" opacity="0"/>
    <path id="linkedin-icon-1" d="M0,7.09a1.957,1.957,0,0,1,.636-1.5A2.334,2.334,0,0,1,2.29,5a2.264,2.264,0,0,1,1.618.582,2.05,2.05,0,0,1,.636,1.563A1.914,1.914,0,0,1,3.926,8.6a2.338,2.338,0,0,1-1.672.6H2.236A2.224,2.224,0,0,1,.618,8.6,2.015,2.015,0,0,1,0,7.09Zm.236,15.9V10.853H4.272V22.995Zm6.271,0h4.035v-6.78a2.366,2.366,0,0,1,.918-2.027,1.975,1.975,0,0,1,1.3-.427q2.036,0,2.036,2.745v6.489h4.035V16.033a5.85,5.85,0,0,0-1.272-4.081A4.34,4.34,0,0,0,14.2,10.562a4.125,4.125,0,0,0-3.654,2.018v.036h-.018l.018-.036V10.853H6.507q.036.582.036,3.617T6.507,22.995Z" transform="translate(1268.084 4141.502)" fill="#000000"/>
  </g>
</svg>
