<svg xmlns="http://www.w3.org/2000/svg" width="21" height="21" viewBox="0 0 21 21">
  <g id="xing" transform="translate(-1180 -4145)">
    <rect id="Rechteck_553" data-name="Rechteck 553" width="21" height="21" transform="translate(1180 4145)" fill="#fff" opacity="0"/>
    <g id="xing-icon" transform="translate(754.889 4042.761)">
      <path id="Pfad_776" data-name="Pfad 776" d="M428.483,142a.453.453,0,0,0-.4.185.458.458,0,0,0,.017.453l2,3.457a.015.015,0,0,1,0,.017l-3.139,5.538a.457.457,0,0,0,0,.453.435.435,0,0,0,.386.2H430.3a.9.9,0,0,0,.806-.57l3.189-5.639c-.012-.019-2.031-3.541-2.031-3.541a.913.913,0,0,0-.822-.554h-2.954Z" transform="translate(0 -35.456)" fill="#000000"/>
      <path id="Pfad_777" data-name="Pfad 777" d="M499.027,102.5a.866.866,0,0,0-.791.563s-6.363,11.285-6.573,11.656l4.2,7.7a.924.924,0,0,0,.825.563h2.95a.436.436,0,0,0,.392-.189.46.46,0,0,0-.006-.457l-4.164-7.608a.017.017,0,0,1,0-.019l6.54-11.564a.463.463,0,0,0,.006-.456.438.438,0,0,0-.393-.189h-2.984Z" transform="translate(-58.134 0)" fill="#000000"/>
    </g>
  </g>
</svg>
