<svg xmlns="http://www.w3.org/2000/svg" width="647" height="647" viewBox="0 0 647 647">
  <g id="Gruppe_10364" data-name="Gruppe 10364" transform="translate(17384.5 -18160.5)" style="isolation: isolate">
    <path id="Ellipse_103" data-name="Ellipse 103" d="M79.17,2.23A77.52,77.52,0,0,0,63.662,3.793,76.507,76.507,0,0,0,36.154,15.369,77.171,77.171,0,0,0,8.276,49.222,76.536,76.536,0,0,0,3.793,63.662a77.712,77.712,0,0,0,0,31.017,76.507,76.507,0,0,0,11.576,27.508,77.172,77.172,0,0,0,33.853,27.878,76.537,76.537,0,0,0,14.439,4.482,77.713,77.713,0,0,0,31.017,0,76.506,76.506,0,0,0,27.508-11.576,77.171,77.171,0,0,0,27.878-33.853,76.538,76.538,0,0,0,4.482-14.439,77.713,77.713,0,0,0,0-31.017,76.506,76.506,0,0,0-11.576-27.508A77.171,77.171,0,0,0,109.118,8.276,76.536,76.536,0,0,0,94.679,3.793,77.52,77.52,0,0,0,79.17,2.23m0-2.23A79.17,79.17,0,1,1,0,79.17,79.17,79.17,0,0,1,79.17,0Z" transform="translate(-17140.164 18404.836)" fill="#31c390"/>
    <path id="Ellipse_103_-_Kontur" data-name="Ellipse 103 - Kontur" d="M79.17-.5A80.257,80.257,0,0,1,95.226,1.119a79.236,79.236,0,0,1,28.489,11.988,79.9,79.9,0,0,1,28.864,35.052,79.276,79.276,0,0,1,4.642,14.956,80.442,80.442,0,0,1,0,32.112,79.236,79.236,0,0,1-11.988,28.489,79.9,79.9,0,0,1-35.052,28.864,79.277,79.277,0,0,1-14.956,4.642,80.442,80.442,0,0,1-32.112,0,79.236,79.236,0,0,1-28.489-11.988A79.9,79.9,0,0,1,5.761,110.182,79.277,79.277,0,0,1,1.119,95.226a80.442,80.442,0,0,1,0-32.112A79.236,79.236,0,0,1,13.107,34.626,79.9,79.9,0,0,1,48.159,5.761,79.276,79.276,0,0,1,63.114,1.119,80.257,80.257,0,0,1,79.17-.5Zm0,158.341a79.254,79.254,0,0,0,15.855-1.6,78.237,78.237,0,0,0,28.13-11.837,78.9,78.9,0,0,0,28.5-34.613,78.271,78.271,0,0,0,4.584-14.767,79.442,79.442,0,0,0,0-31.711,78.237,78.237,0,0,0-11.837-28.13,78.9,78.9,0,0,0-34.613-28.5A78.271,78.271,0,0,0,95.026,2.1a79.442,79.442,0,0,0-31.711,0,78.237,78.237,0,0,0-28.13,11.837,78.9,78.9,0,0,0-28.5,34.613A78.27,78.27,0,0,0,2.1,63.315a79.442,79.442,0,0,0,0,31.711,78.237,78.237,0,0,0,11.837,28.13,78.9,78.9,0,0,0,34.613,28.5,78.27,78.27,0,0,0,14.767,4.584A79.254,79.254,0,0,0,79.17,157.841Zm0-156.11A78.02,78.02,0,0,1,94.779,3.3a77.007,77.007,0,0,1,27.688,11.651,77.671,77.671,0,0,1,28.059,34.073,77.035,77.035,0,0,1,4.512,14.534,78.211,78.211,0,0,1,0,31.217,77.006,77.006,0,0,1-11.651,27.688,77.671,77.671,0,0,1-34.073,28.059,77.036,77.036,0,0,1-14.534,4.512,78.211,78.211,0,0,1-31.217,0,77.006,77.006,0,0,1-27.688-11.651A77.671,77.671,0,0,1,7.815,109.313,77.037,77.037,0,0,1,3.3,94.779a78.212,78.212,0,0,1,0-31.217A77.007,77.007,0,0,1,14.955,35.874,77.671,77.671,0,0,1,49.028,7.815,77.038,77.038,0,0,1,63.562,3.3,78.02,78.02,0,0,1,79.17,1.73Zm0,153.88a77.02,77.02,0,0,0,15.408-1.553,76.006,76.006,0,0,0,27.328-11.5,76.671,76.671,0,0,0,27.7-33.634,76.036,76.036,0,0,0,4.453-14.345,77.213,77.213,0,0,0,0-30.816,76.006,76.006,0,0,0-11.5-27.328,76.671,76.671,0,0,0-33.634-27.7A76.037,76.037,0,0,0,94.579,4.283a77.213,77.213,0,0,0-30.816,0,76.007,76.007,0,0,0-27.328,11.5,76.671,76.671,0,0,0-27.7,33.634A76.036,76.036,0,0,0,4.283,63.762a77.213,77.213,0,0,0,0,30.816,76.007,76.007,0,0,0,11.5,27.328,76.671,76.671,0,0,0,33.634,27.7,76.035,76.035,0,0,0,14.345,4.453A77.02,77.02,0,0,0,79.17,155.61Z" transform="translate(-17140.164 18404.836)" fill="#31c390"/>
    <g id="Gruppe_102" data-name="Gruppe 102" opacity="0.6">
      <path id="Ellipse_102" data-name="Ellipse 102" d="M125.26,2.23a123.952,123.952,0,0,0-24.8,2.5A122.344,122.344,0,0,0,56.474,23.24,123.4,123.4,0,0,0,11.9,77.372,122.4,122.4,0,0,0,4.73,100.463a124.252,124.252,0,0,0,0,49.594A122.345,122.345,0,0,0,23.24,194.046a123.4,123.4,0,0,0,54.132,44.577,122.4,122.4,0,0,0,23.091,7.168,124.252,124.252,0,0,0,49.594,0,122.345,122.345,0,0,0,43.988-18.511,123.4,123.4,0,0,0,44.577-54.132,122.4,122.4,0,0,0,7.168-23.091,124.252,124.252,0,0,0,0-49.594A122.343,122.343,0,0,0,227.28,56.474,123.395,123.395,0,0,0,173.148,11.9,122.4,122.4,0,0,0,150.057,4.73a123.952,123.952,0,0,0-24.8-2.5m0-2.23A125.26,125.26,0,1,1,0,125.26,125.26,125.26,0,0,1,125.26,0Z" transform="translate(-17186.268 18358.732)" fill="#31c390"/>
      <path id="Ellipse_102_-_Kontur" data-name="Ellipse 102 - Kontur" d="M125.26-.5A126.684,126.684,0,0,1,150.6,2.055a125.074,125.074,0,0,1,44.969,18.923,126.126,126.126,0,0,1,45.563,55.33,125.13,125.13,0,0,1,7.328,23.607,126.98,126.98,0,0,1,0,50.689,125.073,125.073,0,0,1-18.923,44.969,126.126,126.126,0,0,1-55.33,45.563,125.129,125.129,0,0,1-23.607,7.328,126.98,126.98,0,0,1-50.689,0,125.073,125.073,0,0,1-44.969-18.923,126.125,126.125,0,0,1-45.563-55.33A125.129,125.129,0,0,1,2.055,150.6a126.98,126.98,0,0,1,0-50.689A125.074,125.074,0,0,1,20.978,54.946,126.125,126.125,0,0,1,76.308,9.383,125.13,125.13,0,0,1,99.916,2.055,126.685,126.685,0,0,1,125.26-.5Zm0,250.52a125.684,125.684,0,0,0,25.144-2.535,124.074,124.074,0,0,0,44.61-18.772,125.126,125.126,0,0,0,45.2-54.891,124.129,124.129,0,0,0,7.269-23.418,125.981,125.981,0,0,0,0-50.288,124.074,124.074,0,0,0-18.772-44.61,125.125,125.125,0,0,0-54.891-45.2A124.129,124.129,0,0,0,150.4,3.035a125.981,125.981,0,0,0-50.288,0,124.075,124.075,0,0,0-44.61,18.772A125.125,125.125,0,0,0,10.3,76.7a124.129,124.129,0,0,0-7.269,23.418,125.981,125.981,0,0,0,0,50.288,124.075,124.075,0,0,0,18.772,44.61,125.126,125.126,0,0,0,54.891,45.2,124.129,124.129,0,0,0,23.418,7.269A125.684,125.684,0,0,0,125.26,250.02Zm0-248.29a124.454,124.454,0,0,1,24.9,2.51,122.845,122.845,0,0,1,44.168,18.586,123.9,123.9,0,0,1,44.757,54.351,122.9,122.9,0,0,1,7.2,23.185,124.753,124.753,0,0,1,0,49.795,122.844,122.844,0,0,1-18.586,44.168,123.9,123.9,0,0,1-54.351,44.757,122.9,122.9,0,0,1-23.185,7.2,124.753,124.753,0,0,1-49.795,0,122.843,122.843,0,0,1-44.168-18.586,123.9,123.9,0,0,1-44.758-54.351,122.9,122.9,0,0,1-7.2-23.185,124.753,124.753,0,0,1,0-49.795A122.844,122.844,0,0,1,22.826,56.195,123.9,123.9,0,0,1,77.177,11.437a122.9,122.9,0,0,1,23.185-7.2A124.454,124.454,0,0,1,125.26,1.73Zm0,246.06a123.451,123.451,0,0,0,24.7-2.489,121.844,121.844,0,0,0,43.809-18.435,122.9,122.9,0,0,0,44.4-53.912,121.9,121.9,0,0,0,7.138-23,123.753,123.753,0,0,0,0-49.394,121.843,121.843,0,0,0-18.435-43.809,122.9,122.9,0,0,0-53.912-44.4,121.9,121.9,0,0,0-23-7.139,123.753,123.753,0,0,0-49.394,0A121.844,121.844,0,0,0,56.754,23.655a122.9,122.9,0,0,0-44.4,53.912,121.9,121.9,0,0,0-7.139,23,123.753,123.753,0,0,0,0,49.394,121.845,121.845,0,0,0,18.435,43.809,122.9,122.9,0,0,0,53.912,44.4,121.9,121.9,0,0,0,23,7.138A123.45,123.45,0,0,0,125.26,247.79Z" transform="translate(-17186.268 18358.732)" fill="#31c390"/>
    </g>
    <g id="Gruppe_101" data-name="Gruppe 101" opacity="0.4">
      <path id="Ellipse_101" data-name="Ellipse 101" d="M198.855,2.23a198.09,198.09,0,0,0-39.629,3.995,195.536,195.536,0,0,0-70.3,29.584A197.205,197.205,0,0,0,17.681,122.32,195.624,195.624,0,0,0,6.225,159.226a198.565,198.565,0,0,0,0,79.258,195.536,195.536,0,0,0,29.584,70.3,197.2,197.2,0,0,0,86.511,71.241,195.632,195.632,0,0,0,36.905,11.456,198.567,198.567,0,0,0,79.258,0,195.539,195.539,0,0,0,70.3-29.584,197.2,197.2,0,0,0,71.241-86.511,195.631,195.631,0,0,0,11.456-36.905,198.567,198.567,0,0,0,0-79.258,195.538,195.538,0,0,0-29.584-70.3,197.205,197.205,0,0,0-86.511-71.241A195.623,195.623,0,0,0,238.484,6.225,198.09,198.09,0,0,0,198.855,2.23m0-2.23C308.679,0,397.71,89.03,397.71,198.855S308.679,397.71,198.855,397.71,0,308.679,0,198.855,89.03,0,198.855,0Z" transform="translate(-17259.852 18285.148)" fill="#31c390"/>
      <path id="Ellipse_101_-_Kontur" data-name="Ellipse 101 - Kontur" d="M198.855-.5a200.825,200.825,0,0,1,40.176,4.05,198.265,198.265,0,0,1,71.285,30,199.936,199.936,0,0,1,72.227,87.71,198.353,198.353,0,0,1,11.616,37.422,201.293,201.293,0,0,1,0,80.353,198.265,198.265,0,0,1-30,71.285,199.936,199.936,0,0,1-87.71,72.227,198.353,198.353,0,0,1-37.422,11.616,201.293,201.293,0,0,1-80.353,0,198.265,198.265,0,0,1-71.285-30,199.936,199.936,0,0,1-72.227-87.71A198.353,198.353,0,0,1,3.55,239.031a201.293,201.293,0,0,1,0-80.353,198.265,198.265,0,0,1,30-71.285,199.936,199.936,0,0,1,87.71-72.227A198.353,198.353,0,0,1,158.678,3.55,200.825,200.825,0,0,1,198.855-.5Zm0,397.71a199.822,199.822,0,0,0,39.976-4.03,197.266,197.266,0,0,0,70.926-29.846,198.935,198.935,0,0,0,71.866-87.271,197.353,197.353,0,0,0,11.558-37.233,200.294,200.294,0,0,0,0-79.952,197.266,197.266,0,0,0-29.846-70.926,198.935,198.935,0,0,0-87.271-71.866A197.353,197.353,0,0,0,238.831,4.53a200.294,200.294,0,0,0-79.952,0A197.266,197.266,0,0,0,87.953,34.376a198.935,198.935,0,0,0-71.866,87.271A197.353,197.353,0,0,0,4.53,158.879a200.294,200.294,0,0,0,0,79.952,197.266,197.266,0,0,0,29.846,70.926,198.935,198.935,0,0,0,87.271,71.866,197.353,197.353,0,0,0,37.233,11.558A199.822,199.822,0,0,0,198.855,397.21Zm0-395.48a198.587,198.587,0,0,1,39.729,4,196.033,196.033,0,0,1,70.484,29.66,197.7,197.7,0,0,1,71.421,86.731,196.134,196.134,0,0,1,11.486,37,199.069,199.069,0,0,1,0,79.459,196.04,196.04,0,0,1-29.66,70.484,197.7,197.7,0,0,1-86.731,71.421,196.13,196.13,0,0,1-37,11.486,199.069,199.069,0,0,1-79.459,0,196.038,196.038,0,0,1-70.484-29.66A197.706,197.706,0,0,1,17.22,275.584a196.124,196.124,0,0,1-11.485-37,199.063,199.063,0,0,1,0-79.459,196.033,196.033,0,0,1,29.66-70.484A197.706,197.706,0,0,1,122.126,17.22a196.121,196.121,0,0,1,37-11.485A198.587,198.587,0,0,1,198.855,1.73Zm0,393.249A197.6,197.6,0,0,0,238.384,391a195.038,195.038,0,0,0,70.124-29.509,196.7,196.7,0,0,0,71.06-86.292A195.127,195.127,0,0,0,391,238.384a198.068,198.068,0,0,0,0-79.058A195.037,195.037,0,0,0,361.486,89.2a196.706,196.706,0,0,0-86.292-71.06A195.116,195.116,0,0,0,238.384,6.715a198.063,198.063,0,0,0-79.058,0A195.034,195.034,0,0,0,89.2,36.224a196.706,196.706,0,0,0-71.06,86.292A195.119,195.119,0,0,0,6.715,159.326a198.063,198.063,0,0,0,0,79.058,195.035,195.035,0,0,0,29.509,70.124,196.7,196.7,0,0,0,86.292,71.06A195.129,195.129,0,0,0,159.326,391,197.6,197.6,0,0,0,198.855,394.98Z" transform="translate(-17259.852 18285.148)" fill="#31c390"/>
    </g>
    <g id="Gruppe_100" data-name="Gruppe 100" opacity="0.2">
      <path id="Ellipse_100" data-name="Ellipse 100" d="M323,2.23a325.948,325.948,0,0,0-32.8,1.656,321.575,321.575,0,0,0-31.849,4.861c-10.334,2.115-20.676,4.774-30.739,7.9-9.951,3.1-19.866,6.724-29.469,10.786A321.712,321.712,0,0,0,27.437,198.143c-4.062,9.6-7.691,19.519-10.786,29.469-3.13,10.063-5.789,20.406-7.9,30.739A321.575,321.575,0,0,0,3.886,290.2a325.613,325.613,0,0,0,0,65.6,321.571,321.571,0,0,0,4.861,31.849c2.115,10.334,4.774,20.676,7.9,30.739,3.1,9.951,6.724,19.866,10.786,29.469A321.711,321.711,0,0,0,198.143,618.563c9.6,4.062,19.519,7.691,29.469,10.786,10.063,3.13,20.406,5.789,30.739,7.9a321.566,321.566,0,0,0,31.849,4.861,325.613,325.613,0,0,0,65.6,0,321.562,321.562,0,0,0,31.849-4.861c10.334-2.115,20.676-4.774,30.739-7.9,9.951-3.1,19.866-6.724,29.469-10.786A321.711,321.711,0,0,0,618.563,447.857c4.062-9.6,7.691-19.519,10.786-29.469,3.13-10.063,5.789-20.406,7.9-30.739a321.562,321.562,0,0,0,4.861-31.849,325.613,325.613,0,0,0,0-65.6,321.566,321.566,0,0,0-4.861-31.849c-2.115-10.334-4.774-20.676-7.9-30.739-3.1-9.951-6.724-19.866-10.786-29.469A321.712,321.712,0,0,0,447.857,27.437c-9.6-4.062-19.519-7.691-29.469-10.786-10.063-3.13-20.406-5.789-30.739-7.9A321.571,321.571,0,0,0,355.8,3.886,325.949,325.949,0,0,0,323,2.23M323,0C501.388,0,646,144.612,646,323S501.388,646,323,646,0,501.388,0,323,144.612,0,323,0Z" transform="translate(-17384 18161)" fill="#31c390"/>
      <path id="Ellipse_100_-_Kontur" data-name="Ellipse 100 - Kontur" d="M323-.5a325.887,325.887,0,0,1,65.2,6.572A321.732,321.732,0,0,1,503.872,54.749a324.443,324.443,0,0,1,117.205,142.33,321.874,321.874,0,0,1,18.85,60.725,326.651,326.651,0,0,1,0,130.392,321.732,321.732,0,0,1-48.677,115.676,324.442,324.442,0,0,1-142.33,117.205,321.872,321.872,0,0,1-60.725,18.85,326.651,326.651,0,0,1-130.392,0,321.731,321.731,0,0,1-115.676-48.677A324.442,324.442,0,0,1,24.922,448.921,321.872,321.872,0,0,1,6.072,388.2a326.651,326.651,0,0,1,0-130.392A321.731,321.731,0,0,1,54.749,142.128,324.443,324.443,0,0,1,197.079,24.922,321.874,321.874,0,0,1,257.8,6.072,325.888,325.888,0,0,1,323-.5Zm0,646a324.883,324.883,0,0,0,65-6.552,320.729,320.729,0,0,0,115.317-48.526A323.443,323.443,0,0,0,620.156,448.531,320.878,320.878,0,0,0,638.948,388a325.649,325.649,0,0,0,0-129.991,320.729,320.729,0,0,0-48.526-115.317A323.444,323.444,0,0,0,448.531,25.843,320.878,320.878,0,0,0,388,7.052,325.649,325.649,0,0,0,258,7.052,320.729,320.729,0,0,0,142.687,55.578,323.443,323.443,0,0,0,25.843,197.468,320.877,320.877,0,0,0,7.052,258,325.649,325.649,0,0,0,7.052,388,320.729,320.729,0,0,0,55.578,503.312,323.442,323.442,0,0,0,197.468,620.156,320.877,320.877,0,0,0,258,638.948,324.883,324.883,0,0,0,323,645.5ZM323,1.73a326.427,326.427,0,0,1,32.85,1.659,322.043,322.043,0,0,1,31.9,4.868c10.35,2.118,20.708,4.781,30.787,7.916,9.967,3.1,19.9,6.734,29.516,10.8A322.211,322.211,0,0,1,619.023,197.948c4.068,9.619,7.7,19.549,10.8,29.516,3.135,10.08,5.8,20.438,7.916,30.788a322.059,322.059,0,0,1,4.868,31.9,326.112,326.112,0,0,1,0,65.7,322.081,322.081,0,0,1-4.868,31.9c-2.118,10.349-4.781,20.708-7.916,30.787-3.1,9.966-6.734,19.9-10.8,29.516A322.21,322.21,0,0,1,448.052,619.023c-9.619,4.069-19.549,7.7-29.516,10.8-10.08,3.135-20.438,5.8-30.787,7.916a322.081,322.081,0,0,1-31.9,4.868,326.112,326.112,0,0,1-65.7,0,322.059,322.059,0,0,1-31.9-4.868c-10.35-2.118-20.708-4.781-30.788-7.916-9.967-3.1-19.9-6.735-29.516-10.8A322.212,322.212,0,0,1,26.976,448.052c-4.068-9.619-7.7-19.549-10.8-29.516-3.135-10.079-5.8-20.438-7.916-30.787a322.043,322.043,0,0,1-4.868-31.9,326.112,326.112,0,0,1,0-65.7,322.023,322.023,0,0,1,4.868-31.9c2.118-10.35,4.781-20.708,7.916-30.788,3.1-9.967,6.735-19.9,10.8-29.516A322.212,322.212,0,0,1,197.948,26.976c9.618-4.068,19.549-7.7,29.516-10.8,10.079-3.135,20.438-5.8,30.788-7.916a322.023,322.023,0,0,1,31.9-4.868A326.423,326.423,0,0,1,323,1.73Zm0,641.539a325.447,325.447,0,0,0,32.749-1.654,321.117,321.117,0,0,0,31.8-4.853c10.317-2.111,20.643-4.766,30.691-7.891,9.935-3.09,19.834-6.713,29.423-10.769A321.212,321.212,0,0,0,618.1,447.662c4.056-9.589,7.679-19.488,10.769-29.423,3.125-10.048,5.78-20.374,7.891-30.691a321.117,321.117,0,0,0,4.853-31.8,325.126,325.126,0,0,0,0-65.5,321.1,321.1,0,0,0-4.853-31.8c-2.111-10.317-4.766-20.643-7.891-30.691-3.09-9.935-6.714-19.835-10.769-29.423A321.212,321.212,0,0,0,447.662,27.9c-9.589-4.056-19.488-7.679-29.423-10.769-10.048-3.125-20.374-5.78-30.691-7.891a321.083,321.083,0,0,0-31.8-4.853,325.126,325.126,0,0,0-65.5,0,321.067,321.067,0,0,0-31.8,4.853C248.134,11.348,237.808,14,227.76,17.128c-9.936,3.09-19.835,6.714-29.423,10.769A321.213,321.213,0,0,0,27.9,198.337c-4.055,9.588-7.679,19.488-10.769,29.423-3.125,10.048-5.78,20.374-7.891,30.691a321.067,321.067,0,0,0-4.853,31.8,325.126,325.126,0,0,0,0,65.5,321.083,321.083,0,0,0,4.853,31.8c2.111,10.317,4.766,20.643,7.891,30.691,3.09,9.935,6.714,19.835,10.769,29.423A321.212,321.212,0,0,0,198.337,618.1c9.589,4.056,19.488,7.679,29.423,10.769,10.048,3.125,20.374,5.78,30.691,7.891a321.1,321.1,0,0,0,31.8,4.853A325.444,325.444,0,0,0,323,643.269Z" transform="translate(-17384 18161)" fill="#31c390"/>
    </g>
  </g>
</svg>
