<svg xmlns="http://www.w3.org/2000/svg" width="884" height="884" viewBox="0 0 884 884">
  <g id="Gruppe_10312" data-name="Gruppe 10312" transform="translate(17384 -18161)" opacity="0.2">
    <path id="Ellipse_103" data-name="Ellipse 103" d="M108.338,3.052A106.08,106.08,0,0,0,87.116,5.191a104.694,104.694,0,0,0-37.642,15.84A105.6,105.6,0,0,0,11.324,67.357,104.733,104.733,0,0,0,5.191,87.116a106.343,106.343,0,0,0,0,42.444A104.693,104.693,0,0,0,21.031,167.2a105.6,105.6,0,0,0,46.326,38.149,104.736,104.736,0,0,0,19.759,6.134,106.344,106.344,0,0,0,42.444,0,104.693,104.693,0,0,0,37.642-15.84,105.6,105.6,0,0,0,38.149-46.326,104.736,104.736,0,0,0,6.134-19.759,106.344,106.344,0,0,0,0-42.444,104.693,104.693,0,0,0-15.84-37.642A105.6,105.6,0,0,0,149.32,11.324,104.733,104.733,0,0,0,129.56,5.191a106.08,106.08,0,0,0-21.222-2.139m0-3.052A108.338,108.338,0,1,1,0,108.338,108.338,108.338,0,0,1,108.338,0Z" transform="translate(-17050.342 18494.658)" fill="#1372d0"/>
    <path id="Ellipse_102" data-name="Ellipse 102" d="M171.408,3.052a169.618,169.618,0,0,0-33.933,3.42A167.418,167.418,0,0,0,77.281,31.8a168.857,168.857,0,0,0-61,74.075,167.491,167.491,0,0,0-9.809,31.6,170.029,170.029,0,0,0,0,67.866A167.419,167.419,0,0,0,31.8,265.536a168.858,168.858,0,0,0,74.075,61,167.494,167.494,0,0,0,31.6,9.809,170.028,170.028,0,0,0,67.866,0,167.418,167.418,0,0,0,60.195-25.33,168.857,168.857,0,0,0,61-74.075,167.492,167.492,0,0,0,9.809-31.6,170.028,170.028,0,0,0,0-67.866,167.417,167.417,0,0,0-25.33-60.195,168.856,168.856,0,0,0-74.075-61,167.489,167.489,0,0,0-31.6-9.809,169.618,169.618,0,0,0-33.933-3.42m0-3.052A171.408,171.408,0,1,1,0,171.408,171.409,171.409,0,0,1,171.408,0Z" transform="translate(-17113.41 18431.59)" fill="#1372d0" opacity="0.6"/>
    <path id="Ellipse_101" data-name="Ellipse 101" d="M272.117,3.052a271.071,271.071,0,0,0-54.229,5.466A267.575,267.575,0,0,0,121.682,49,269.86,269.86,0,0,0,24.2,167.386a267.7,267.7,0,0,0-15.677,50.5,271.72,271.72,0,0,0,0,108.459A267.576,267.576,0,0,0,49,422.552a269.858,269.858,0,0,0,118.384,97.487,267.693,267.693,0,0,0,50.5,15.677,271.719,271.719,0,0,0,108.459,0,267.579,267.579,0,0,0,96.206-40.484,269.858,269.858,0,0,0,97.487-118.384,267.691,267.691,0,0,0,15.677-50.5,271.719,271.719,0,0,0,0-108.459,267.578,267.578,0,0,0-40.484-96.206A269.86,269.86,0,0,0,376.849,24.2a267.693,267.693,0,0,0-50.5-15.677,271.071,271.071,0,0,0-54.229-5.466m0-3.052C422.4,0,544.234,121.831,544.234,272.117S422.4,544.234,272.117,544.234,0,422.4,0,272.117,121.831,0,272.117,0Z" transform="translate(-17214.121 18330.879)" fill="#1372d0" opacity="0.4"/>
    <path id="Ellipse_100" data-name="Ellipse 100" d="M442,3.052a446.035,446.035,0,0,0-44.884,2.266,440.051,440.051,0,0,0-43.583,6.651c-14.141,2.894-28.293,6.533-42.064,10.816-13.617,4.235-27.185,9.2-40.327,14.76a440.238,440.238,0,0,0-233.6,233.6c-5.559,13.142-10.524,26.71-14.76,40.327C18.5,325.24,14.863,339.392,11.97,353.533a440.051,440.051,0,0,0-6.651,43.583,445.577,445.577,0,0,0,0,89.767,440.053,440.053,0,0,0,6.651,43.583c2.894,14.141,6.533,28.293,10.816,42.064,4.235,13.617,9.2,27.185,14.76,40.327a440.237,440.237,0,0,0,233.6,233.6c13.142,5.559,26.71,10.525,40.327,14.76,13.771,4.283,27.923,7.922,42.064,10.816a440.015,440.015,0,0,0,43.583,6.652,445.589,445.589,0,0,0,89.767,0,440.017,440.017,0,0,0,43.583-6.652c14.141-2.894,28.293-6.533,42.064-10.816,13.617-4.235,27.185-9.2,40.327-14.76a440.238,440.238,0,0,0,233.6-233.6c5.559-13.142,10.525-26.71,14.76-40.327,4.283-13.771,7.922-27.923,10.816-42.064a440.017,440.017,0,0,0,6.652-43.583,445.589,445.589,0,0,0,0-89.767,440.015,440.015,0,0,0-6.652-43.583c-2.894-14.141-6.533-28.293-10.816-42.064-4.235-13.617-9.2-27.185-14.76-40.327a440.238,440.238,0,0,0-233.6-233.6c-13.142-5.559-26.71-10.524-40.327-14.76C558.76,18.5,544.607,14.863,530.466,11.97a440.053,440.053,0,0,0-43.583-6.651A446.036,446.036,0,0,0,442,3.052M442,0c244.11,0,442,197.89,442,442S686.109,884,442,884,0,686.109,0,442,197.89,0,442,0Z" transform="translate(-17384 18161)" fill="#1372d0" opacity="0.2"/>
  </g>
</svg>
