<svg xmlns="http://www.w3.org/2000/svg" width="220" height="220" viewBox="0 0 220 220">
  <path id="Ellipse_105" data-name="Ellipse 105" d="M110,2A108.809,108.809,0,0,0,88.232,4.194,107.4,107.4,0,0,0,49.618,20.444,108.321,108.321,0,0,0,10.486,67.962a107.442,107.442,0,0,0-6.292,20.27,109.073,109.073,0,0,0,0,43.536,107.4,107.4,0,0,0,16.249,38.615,108.321,108.321,0,0,0,47.519,39.131,107.442,107.442,0,0,0,20.27,6.292,109.073,109.073,0,0,0,43.536,0,107.4,107.4,0,0,0,38.615-16.249,108.321,108.321,0,0,0,39.131-47.519,107.442,107.442,0,0,0,6.292-20.27,109.073,109.073,0,0,0,0-43.536,107.4,107.4,0,0,0-16.249-38.615,108.321,108.321,0,0,0-47.519-39.131,107.442,107.442,0,0,0-20.27-6.292A108.809,108.809,0,0,0,110,2m0-2A110,110,0,1,1,0,110,110,110,0,0,1,110,0Z" fill="#eba41d" opacity="0.4"/>
</svg>
