<svg xmlns="http://www.w3.org/2000/svg" width="180" height="180" viewBox="0 0 180 180">
  <g id="Gruppe_10364" data-name="Gruppe 10364" transform="translate(17589.615 -17955.385)" style="isolation: isolate">
    <path id="Ellipse_103" data-name="Ellipse 103" d="M28.41.8a27.818,27.818,0,0,0-5.565.561,27.455,27.455,0,0,0-9.871,4.154,27.693,27.693,0,0,0-10,12.148,27.465,27.465,0,0,0-1.608,5.182,27.887,27.887,0,0,0,0,11.131,27.455,27.455,0,0,0,4.154,9.871,27.693,27.693,0,0,0,12.148,10,27.466,27.466,0,0,0,5.182,1.608,27.888,27.888,0,0,0,11.131,0,27.455,27.455,0,0,0,9.871-4.154,27.693,27.693,0,0,0,10-12.148,27.466,27.466,0,0,0,1.608-5.182,27.888,27.888,0,0,0,0-11.131,27.455,27.455,0,0,0-4.154-9.871,27.693,27.693,0,0,0-12.148-10,27.465,27.465,0,0,0-5.182-1.608A27.818,27.818,0,0,0,28.41.8m0-.8A28.41,28.41,0,1,1,0,28.41,28.41,28.41,0,0,1,28.41,0Z" transform="translate(-17528.025 18016.975)" fill="#31c390"/>
    <path id="Ellipse_103_-_Kontur" data-name="Ellipse 103 - Kontur" d="M28.411-.5a29.123,29.123,0,0,1,5.826.587,28.753,28.753,0,0,1,10.338,4.35,28.994,28.994,0,0,1,10.474,12.72,28.768,28.768,0,0,1,1.685,5.427,29.191,29.191,0,0,1,0,11.653,28.753,28.753,0,0,1-4.35,10.338,28.994,28.994,0,0,1-12.72,10.474,28.768,28.768,0,0,1-5.427,1.685,29.191,29.191,0,0,1-11.653,0,28.753,28.753,0,0,1-10.338-4.35A28.994,28.994,0,0,1,1.772,39.664,28.768,28.768,0,0,1,.087,34.237a29.191,29.191,0,0,1,0-11.653,28.753,28.753,0,0,1,4.35-10.338A28.994,28.994,0,0,1,17.157,1.772,28.768,28.768,0,0,1,22.584.087,29.123,29.123,0,0,1,28.411-.5Zm0,57.458a28.759,28.759,0,0,0,5.754-.58,28.39,28.39,0,0,0,10.208-4.3,28.631,28.631,0,0,0,10.343-12.56,28.4,28.4,0,0,0,1.663-5.358,28.828,28.828,0,0,0,0-11.507,28.39,28.39,0,0,0-4.3-10.208A28.631,28.631,0,0,0,39.522,2.106,28.4,28.4,0,0,0,34.164.443a28.828,28.828,0,0,0-11.507,0,28.39,28.39,0,0,0-10.208,4.3A28.631,28.631,0,0,0,2.106,17.3,28.4,28.4,0,0,0,.443,22.657a28.828,28.828,0,0,0,0,11.507,28.39,28.39,0,0,0,4.3,10.208A28.631,28.631,0,0,0,17.3,54.715a28.4,28.4,0,0,0,5.358,1.663A28.759,28.759,0,0,0,28.411,56.958Zm0-56.649A28.312,28.312,0,0,1,34.075.88,27.944,27.944,0,0,1,44.122,5.108,28.185,28.185,0,0,1,54.3,17.472a27.954,27.954,0,0,1,1.637,5.274,28.381,28.381,0,0,1,0,11.328,27.944,27.944,0,0,1-4.228,10.047A28.185,28.185,0,0,1,39.349,54.3a27.955,27.955,0,0,1-5.274,1.637,28.381,28.381,0,0,1-11.328,0A27.944,27.944,0,0,1,12.7,51.713,28.185,28.185,0,0,1,2.517,39.349,27.955,27.955,0,0,1,.88,34.075a28.381,28.381,0,0,1,0-11.328A27.944,27.944,0,0,1,5.108,12.7,28.185,28.185,0,0,1,17.472,2.517,27.955,27.955,0,0,1,22.746.88,28.312,28.312,0,0,1,28.411.309Zm0,55.84A27.948,27.948,0,0,0,34,55.585a27.581,27.581,0,0,0,9.917-4.173,27.822,27.822,0,0,0,10.051-12.2A27.592,27.592,0,0,0,55.585,34a28.019,28.019,0,0,0,0-11.183A27.581,27.581,0,0,0,51.412,12.9a27.822,27.822,0,0,0-12.2-10.051A27.592,27.592,0,0,0,34,1.236a28.019,28.019,0,0,0-11.183,0A27.581,27.581,0,0,0,12.9,5.409a27.822,27.822,0,0,0-10.051,12.2,27.592,27.592,0,0,0-1.616,5.205A28.019,28.019,0,0,0,1.236,34a27.581,27.581,0,0,0,4.173,9.917,27.822,27.822,0,0,0,12.2,10.051,27.592,27.592,0,0,0,5.205,1.616A27.949,27.949,0,0,0,28.411,56.149Z" transform="translate(-17528.025 18016.975)" fill="#31c390"/>
    <g id="Gruppe_102" data-name="Gruppe 102" transform="translate(-17589.615 17955.385)" opacity="0.6">
      <path id="Ellipse_102" data-name="Ellipse 102" d="M89.5,1.593A88.565,88.565,0,0,0,71.782,3.379a87.416,87.416,0,0,0-31.43,13.226A88.168,88.168,0,0,0,8.5,55.283a87.455,87.455,0,0,0-5.122,16.5,88.78,88.78,0,0,0,0,35.436,87.417,87.417,0,0,0,13.226,31.43A88.168,88.168,0,0,0,55.283,170.5a87.455,87.455,0,0,0,16.5,5.122,88.78,88.78,0,0,0,35.436,0,87.417,87.417,0,0,0,31.43-13.226A88.168,88.168,0,0,0,170.5,123.717a87.454,87.454,0,0,0,5.122-16.5,88.78,88.78,0,0,0,0-35.436,87.416,87.416,0,0,0-13.226-31.43A88.167,88.167,0,0,0,123.717,8.5a87.453,87.453,0,0,0-16.5-5.122A88.565,88.565,0,0,0,89.5,1.593M89.5,0A89.5,89.5,0,1,1,0,89.5,89.5,89.5,0,0,1,89.5,0Z" transform="translate(0.5 0.5)" fill="#31c390"/>
      <path id="Ellipse_102_-_Kontur" data-name="Ellipse 102 - Kontur" d="M89.5-.5a90.662,90.662,0,0,1,18.138,1.828A89.509,89.509,0,0,1,139.82,14.871a90.262,90.262,0,0,1,32.607,39.6,89.548,89.548,0,0,1,5.244,16.894,90.873,90.873,0,0,1,0,36.276,89.509,89.509,0,0,1-13.542,32.182,90.262,90.262,0,0,1-39.6,32.607,89.548,89.548,0,0,1-16.894,5.244,90.873,90.873,0,0,1-36.276,0A89.509,89.509,0,0,1,39.18,164.129a90.261,90.261,0,0,1-32.607-39.6,89.549,89.549,0,0,1-5.244-16.894,90.873,90.873,0,0,1,0-36.276A89.509,89.509,0,0,1,14.871,39.18a90.261,90.261,0,0,1,39.6-32.607A89.549,89.549,0,0,1,71.362,1.328,90.662,90.662,0,0,1,89.5-.5Zm0,179.284a89.946,89.946,0,0,0,17.994-1.814,88.794,88.794,0,0,0,31.925-13.434,89.546,89.546,0,0,0,32.349-39.283,88.834,88.834,0,0,0,5.2-16.759,90.16,90.16,0,0,0,0-35.989,88.793,88.793,0,0,0-13.434-31.925A89.546,89.546,0,0,0,124.253,7.232a88.833,88.833,0,0,0-16.759-5.2,90.159,90.159,0,0,0-35.989,0A88.794,88.794,0,0,0,39.581,15.464,89.546,89.546,0,0,0,7.232,54.747a88.833,88.833,0,0,0-5.2,16.759,90.159,90.159,0,0,0,0,35.989,88.794,88.794,0,0,0,13.434,31.925,89.547,89.547,0,0,0,39.283,32.349,88.834,88.834,0,0,0,16.759,5.2A89.946,89.946,0,0,0,89.5,178.784ZM89.5,1.1a89.065,89.065,0,0,1,17.818,1.8,87.914,87.914,0,0,1,31.609,13.3,88.666,88.666,0,0,1,32.031,38.9,87.954,87.954,0,0,1,5.151,16.593,89.279,89.279,0,0,1,0,35.636,87.913,87.913,0,0,1-13.3,31.609,88.666,88.666,0,0,1-38.9,32.031,87.952,87.952,0,0,1-16.593,5.151,89.279,89.279,0,0,1-35.636,0,87.912,87.912,0,0,1-31.609-13.3,88.666,88.666,0,0,1-32.031-38.9,87.952,87.952,0,0,1-5.151-16.593,89.279,89.279,0,0,1,0-35.636,87.913,87.913,0,0,1,13.3-31.609A88.666,88.666,0,0,1,55.09,8.043,87.954,87.954,0,0,1,71.682,2.892,89.065,89.065,0,0,1,89.5,1.1Zm0,176.092a88.347,88.347,0,0,0,17.674-1.782,87.2,87.2,0,0,0,31.352-13.193A87.95,87.95,0,0,0,170.3,123.632a87.236,87.236,0,0,0,5.109-16.457,88.564,88.564,0,0,0,0-35.349,87.2,87.2,0,0,0-13.193-31.352A87.95,87.95,0,0,0,123.632,8.7a87.236,87.236,0,0,0-16.457-5.109,88.564,88.564,0,0,0-35.349,0A87.2,87.2,0,0,0,40.474,16.786,87.95,87.95,0,0,0,8.7,55.368,87.237,87.237,0,0,0,3.593,71.826a88.564,88.564,0,0,0,0,35.349,87.2,87.2,0,0,0,13.193,31.352A87.95,87.95,0,0,0,55.368,170.3a87.239,87.239,0,0,0,16.457,5.109A88.347,88.347,0,0,0,89.5,177.188Z" transform="translate(0.5 0.5)" fill="#31c390"/>
    </g>
    <g id="Gruppe_101" data-name="Gruppe 101" transform="translate(-17574.615 17970.385)" opacity="0.4">
      <path id="Ellipse_101" data-name="Ellipse 101" d="M74.5.836a74.214,74.214,0,0,0-14.847,1.5A73.257,73.257,0,0,0,33.314,13.416,73.882,73.882,0,0,0,6.624,45.827,73.29,73.29,0,0,0,2.332,59.653a74.391,74.391,0,0,0,0,29.694,73.257,73.257,0,0,0,11.084,26.339,73.882,73.882,0,0,0,32.411,26.69,73.293,73.293,0,0,0,13.826,4.292,74.393,74.393,0,0,0,29.694,0,73.258,73.258,0,0,0,26.339-11.084,73.882,73.882,0,0,0,26.69-32.411,73.293,73.293,0,0,0,4.292-13.826,74.393,74.393,0,0,0,0-29.694,73.258,73.258,0,0,0-11.084-26.339,73.882,73.882,0,0,0-32.411-26.69A73.289,73.289,0,0,0,89.347,2.332,74.214,74.214,0,0,0,74.5.836M74.5,0A74.5,74.5,0,1,1,0,74.5,74.5,74.5,0,0,1,74.5,0Z" transform="translate(0.5 0.5)" fill="#31c390"/>
      <path id="Ellipse_101_-_Kontur" data-name="Ellipse 101 - Kontur" d="M74.5-.5A75.553,75.553,0,0,1,89.615,1.024a74.59,74.59,0,0,1,26.818,11.285,75.219,75.219,0,0,1,27.173,33,74.624,74.624,0,0,1,4.37,14.079,75.729,75.729,0,0,1,0,30.23,74.59,74.59,0,0,1-11.285,26.818,75.219,75.219,0,0,1-33,27.173,74.624,74.624,0,0,1-14.079,4.37,75.729,75.729,0,0,1-30.23,0,74.59,74.59,0,0,1-26.818-11.285,75.219,75.219,0,0,1-27.173-33,74.623,74.623,0,0,1-4.37-14.079,75.729,75.729,0,0,1,0-30.23A74.59,74.59,0,0,1,12.309,32.567a75.219,75.219,0,0,1,33-27.173,74.623,74.623,0,0,1,14.079-4.37A75.553,75.553,0,0,1,74.5-.5Zm0,149.624a75.176,75.176,0,0,0,15.04-1.516,74.214,74.214,0,0,0,26.683-11.228,74.842,74.842,0,0,0,27.037-32.833,74.246,74.246,0,0,0,4.348-14.007,75.354,75.354,0,0,0,0-30.079A74.214,74.214,0,0,0,136.38,32.777,74.842,74.842,0,0,0,103.547,5.74,74.247,74.247,0,0,0,89.54,1.392a75.353,75.353,0,0,0-30.079,0A74.214,74.214,0,0,0,32.777,12.621,74.842,74.842,0,0,0,5.74,45.453,74.247,74.247,0,0,0,1.392,59.461a75.353,75.353,0,0,0,0,30.079,74.214,74.214,0,0,0,11.228,26.683A74.842,74.842,0,0,0,45.453,143.26a74.247,74.247,0,0,0,14.007,4.348A75.176,75.176,0,0,0,74.5,149.124ZM74.5.339A74.711,74.711,0,0,1,89.447,1.846,73.751,73.751,0,0,1,115.964,13a74.379,74.379,0,0,1,26.87,32.629,73.787,73.787,0,0,1,4.321,13.92,74.892,74.892,0,0,1,0,29.893A73.753,73.753,0,0,1,136,115.964a74.379,74.379,0,0,1-32.629,26.87,73.786,73.786,0,0,1-13.92,4.321,74.892,74.892,0,0,1-29.893,0A73.753,73.753,0,0,1,33.036,136a74.38,74.38,0,0,1-26.87-32.629,73.785,73.785,0,0,1-4.321-13.92,74.89,74.89,0,0,1,0-29.893A73.75,73.75,0,0,1,13,33.036,74.38,74.38,0,0,1,45.633,6.167a73.784,73.784,0,0,1,13.92-4.321A74.711,74.711,0,0,1,74.5.339Zm0,147.946a74.339,74.339,0,0,0,14.871-1.5,73.376,73.376,0,0,0,26.382-11.1,74,74,0,0,0,26.734-32.464,73.41,73.41,0,0,0,4.3-13.849,74.516,74.516,0,0,0,0-29.743,73.376,73.376,0,0,0-11.1-26.382A74,74,0,0,0,103.22,6.513a73.405,73.405,0,0,0-13.849-4.3,74.514,74.514,0,0,0-29.743,0,73.375,73.375,0,0,0-26.382,11.1A74,74,0,0,0,6.513,45.78a73.407,73.407,0,0,0-4.3,13.849,74.514,74.514,0,0,0,0,29.743,73.375,73.375,0,0,0,11.1,26.382A74,74,0,0,0,45.78,142.487a73.41,73.41,0,0,0,13.849,4.3A74.339,74.339,0,0,0,74.5,148.285Z" transform="translate(0.5 0.5)" fill="#31c390"/>
    </g>
    <g id="Gruppe_100" data-name="Gruppe 100" transform="translate(-17574.615 17970.385)" opacity="0.2">
      <path id="Ellipse_100" data-name="Ellipse 100" d="M74.5.514A75.18,75.18,0,0,0,66.935.9a74.171,74.171,0,0,0-7.346,1.121c-2.383.488-4.769,1.1-7.09,1.823-2.3.714-4.582,1.551-6.8,2.488A74.2,74.2,0,0,0,6.328,45.7c-.937,2.215-1.774,4.5-2.488,6.8-.722,2.321-1.335,4.707-1.823,7.09A74.171,74.171,0,0,0,.9,66.935a75.1,75.1,0,0,0,0,15.13,74.17,74.17,0,0,0,1.121,7.346c.488,2.383,1.1,4.769,1.823,7.09.714,2.3,1.551,4.582,2.488,6.8A74.2,74.2,0,0,0,45.7,142.671c2.215.937,4.5,1.774,6.8,2.488,2.321.722,4.707,1.335,7.09,1.823a74.167,74.167,0,0,0,7.346,1.121,75.1,75.1,0,0,0,15.13,0,74.166,74.166,0,0,0,7.346-1.121c2.383-.488,4.769-1.1,7.09-1.823,2.3-.714,4.582-1.551,6.8-2.488A74.2,74.2,0,0,0,142.671,103.3c.937-2.215,1.774-4.5,2.488-6.8.722-2.321,1.335-4.707,1.823-7.09a74.166,74.166,0,0,0,1.121-7.346,75.1,75.1,0,0,0,0-15.13,74.167,74.167,0,0,0-1.121-7.346c-.488-2.383-1.1-4.769-1.823-7.09-.714-2.3-1.551-4.582-2.488-6.8A74.2,74.2,0,0,0,103.3,6.328c-2.215-.937-4.5-1.774-6.8-2.488-2.321-.722-4.707-1.335-7.09-1.823A74.17,74.17,0,0,0,82.065.9,75.18,75.18,0,0,0,74.5.514M74.5,0A74.5,74.5,0,1,1,0,74.5,74.5,74.5,0,0,1,74.5,0Z" transform="translate(0.5 0.5)" fill="#31c390"/>
      <path id="Ellipse_100_-_Kontur" data-name="Ellipse 100 - Kontur" d="M74.5-.5A75.553,75.553,0,0,1,89.615,1.024a74.59,74.59,0,0,1,26.818,11.285,75.218,75.218,0,0,1,27.173,33,74.622,74.622,0,0,1,4.37,14.078,75.731,75.731,0,0,1,0,30.23,74.59,74.59,0,0,1-11.285,26.818,75.218,75.218,0,0,1-33,27.173,74.622,74.622,0,0,1-14.078,4.37,75.731,75.731,0,0,1-30.23,0,74.59,74.59,0,0,1-26.818-11.285,75.218,75.218,0,0,1-27.173-33,74.622,74.622,0,0,1-4.37-14.078,75.73,75.73,0,0,1,0-30.23A74.59,74.59,0,0,1,12.309,32.567a75.218,75.218,0,0,1,33-27.173,74.623,74.623,0,0,1,14.078-4.37A75.554,75.554,0,0,1,74.5-.5Zm0,149.768a75.32,75.32,0,0,0,15.068-1.519A74.357,74.357,0,0,0,116.3,136.5a74.987,74.987,0,0,0,27.089-32.9,74.391,74.391,0,0,0,4.357-14.035,75.5,75.5,0,0,0,0-30.137A74.357,74.357,0,0,0,136.5,32.7,74.987,74.987,0,0,0,103.6,5.607,74.392,74.392,0,0,0,89.568,1.251a75.5,75.5,0,0,0-30.137,0A74.358,74.358,0,0,0,32.7,12.5,74.987,74.987,0,0,0,5.607,45.4,74.392,74.392,0,0,0,1.251,59.431a75.5,75.5,0,0,0,0,30.137A74.357,74.357,0,0,0,12.5,116.3a74.987,74.987,0,0,0,32.9,27.089,74.391,74.391,0,0,0,14.035,4.357A75.32,75.32,0,0,0,74.5,149.268ZM74.5.017A75.678,75.678,0,0,1,82.116.4a74.662,74.662,0,0,1,7.4,1.129c2.4.491,4.8,1.108,7.138,1.835,2.311.719,4.613,1.561,6.843,2.5A74.7,74.7,0,0,1,143.13,45.508c.943,2.23,1.786,4.532,2.5,6.843.727,2.337,1.344,4.738,1.835,7.138a74.668,74.668,0,0,1,1.129,7.4,75.6,75.6,0,0,1,0,15.232,74.674,74.674,0,0,1-1.129,7.4c-.491,2.4-1.108,4.8-1.835,7.138-.719,2.311-1.561,4.613-2.5,6.843a74.7,74.7,0,0,1-39.638,39.638c-2.23.943-4.532,1.786-6.843,2.5-2.337.727-4.738,1.344-7.138,1.835a74.674,74.674,0,0,1-7.4,1.129,75.6,75.6,0,0,1-15.232,0,74.668,74.668,0,0,1-7.4-1.129c-2.4-.491-4.8-1.108-7.138-1.835-2.311-.719-4.613-1.561-6.843-2.5A74.7,74.7,0,0,1,5.87,103.492c-.943-2.23-1.786-4.532-2.5-6.843-.727-2.337-1.344-4.738-1.835-7.138A74.662,74.662,0,0,1,.4,82.116a75.605,75.605,0,0,1,0-15.232,74.657,74.657,0,0,1,1.129-7.4c.491-2.4,1.108-4.8,1.835-7.138.719-2.311,1.561-4.613,2.5-6.843A74.7,74.7,0,0,1,45.508,5.87c2.23-.943,4.532-1.786,6.843-2.5,2.337-.727,4.738-1.344,7.138-1.835A74.657,74.657,0,0,1,66.884.4,75.678,75.678,0,0,1,74.5.017Zm0,148.734a75.451,75.451,0,0,0,7.593-.383,74.451,74.451,0,0,0,7.372-1.125c2.392-.489,4.786-1.105,7.115-1.83,2.3-.716,4.6-1.556,6.821-2.5A74.469,74.469,0,0,0,142.916,103.4c.94-2.223,1.78-4.518,2.5-6.821.725-2.33,1.34-4.723,1.83-7.115a74.451,74.451,0,0,0,1.125-7.372,75.377,75.377,0,0,0,0-15.185,74.447,74.447,0,0,0-1.125-7.372c-.489-2.392-1.105-4.786-1.83-7.115-.716-2.3-1.556-4.6-2.5-6.821A74.469,74.469,0,0,0,103.4,6.084c-2.223-.94-4.518-1.78-6.821-2.5-2.329-.725-4.723-1.34-7.115-1.83A74.439,74.439,0,0,0,82.092.632a75.377,75.377,0,0,0-15.185,0,74.436,74.436,0,0,0-7.372,1.125c-2.392.489-4.786,1.105-7.115,1.83-2.3.716-4.6,1.556-6.821,2.5A74.47,74.47,0,0,0,6.084,45.6c-.94,2.223-1.78,4.518-2.5,6.821-.725,2.329-1.34,4.723-1.83,7.115A74.436,74.436,0,0,0,.632,66.907a75.377,75.377,0,0,0,0,15.185,74.439,74.439,0,0,0,1.125,7.372c.489,2.392,1.105,4.786,1.83,7.115.716,2.3,1.556,4.6,2.5,6.821A74.469,74.469,0,0,0,45.6,142.916c2.223.94,4.518,1.78,6.821,2.5,2.329.725,4.723,1.34,7.115,1.83a74.447,74.447,0,0,0,7.372,1.125A75.451,75.451,0,0,0,74.5,148.751Z" transform="translate(0.5 0.5)" fill="#31c390"/>
    </g>
  </g>
</svg>
