<?xml version="1.0" encoding="utf-8"?>
<!-- Generator: Adobe Illustrator 25.4.1, SVG Export Plug-In . SVG Version: 6.00 Build 0)  -->
<svg version="1.1" id="Gruppe_418" xmlns="http://www.w3.org/2000/svg" xmlns:xlink="http://www.w3.org/1999/xlink" x="0px" y="0px"
	 viewBox="0 0 169.6 24.2" style="enable-background:new 0 0 169.6 24.2;" xml:space="preserve">
<style type="text/css">
	.st0{enable-background:new    ;}
	.st1{fill:#091317;}
	.st2{fill:#AFDD22;}
	.st3{fill:#3FC0F0;}
</style>
<g class="st0">
	<path class="st1" d="M67.3,15.9l1.5-7.4h3l-3,11.6h-2.6l-2.2-7.3l-2.2,7.3h-2.6l-3-11.6h3l1.5,7.4l2.1-7.4h2.2L67.3,15.9z"/>
	<path class="st1" d="M80.3,19c-0.8,0.9-1.8,1.4-3.2,1.4c-1.2,0-2.2-0.4-2.9-1.1s-1-1.8-1-3.1V8.5h3.1V16c0,1.2,0.6,1.8,1.7,1.8
		c1.1,0,1.8-0.4,2.2-1.1V8.5h3.1v11.6h-2.9L80.3,19z"/>
	<path class="st1" d="M88.5,8.5l0.1,1.3c0.8-1,1.9-1.6,3.3-1.6c1.2,0,2.1,0.4,2.8,1.1s0.9,1.8,0.9,3.2v7.5h-3.1v-7.4
		c0-0.7-0.1-1.1-0.4-1.4c-0.3-0.3-0.8-0.4-1.4-0.4c-0.9,0-1.5,0.4-2,1.1v8.2h-3.1V8.5H88.5z"/>
	<path class="st1" d="M97.5,14.2c0-1.8,0.4-3.3,1.2-4.3s1.9-1.6,3.3-1.6c1.1,0,2.1,0.4,2.8,1.3V3.6h3.1v16.5h-2.8l-0.2-1.2
		c-0.8,1-1.8,1.5-3,1.5c-1.4,0-2.5-0.5-3.3-1.6C97.9,17.7,97.5,16.2,97.5,14.2z M100.6,14.5c0,1.1,0.2,1.9,0.6,2.5
		c0.4,0.6,0.9,0.9,1.7,0.9c1,0,1.6-0.4,2-1.2V12c-0.4-0.8-1.1-1.2-2-1.2C101.4,10.8,100.6,12,100.6,14.5z"/>
	<path class="st1" d="M115.7,20.4c-1.7,0-3.1-0.5-4.2-1.6s-1.6-2.4-1.6-4.2v-0.3c0-1.2,0.2-2.2,0.7-3.1c0.5-0.9,1.1-1.6,1.9-2.1
		c0.8-0.5,1.8-0.7,2.8-0.7c1.6,0,2.8,0.5,3.8,1.5c0.9,1,1.4,2.4,1.4,4.3v1.3h-7.4c0.1,0.8,0.4,1.4,0.9,1.8c0.5,0.5,1.1,0.7,1.9,0.7
		c1.2,0,2.1-0.4,2.8-1.3l1.5,1.7c-0.5,0.7-1.1,1.2-1.9,1.5C117.6,20.2,116.7,20.4,115.7,20.4z M115.4,10.8c-0.6,0-1.1,0.2-1.5,0.6
		c-0.4,0.4-0.6,1-0.7,1.8h4.3V13c0-0.7-0.2-1.2-0.6-1.6C116.5,11,116,10.8,115.4,10.8z"/>
	<path class="st1" d="M128.8,11.4c-0.4-0.1-0.8-0.1-1.1-0.1c-1.2,0-1.9,0.4-2.3,1.2v7.6h-3.1V8.5h2.9l0.1,1.4
		c0.6-1.1,1.5-1.6,2.6-1.6c0.3,0,0.7,0,1,0.1L128.8,11.4z"/>
	<path class="st1" d="M133.6,20.1h-3.1V3.6h3.1V20.1z"/>
	<path class="st1" d="M142.9,20.1c-0.1-0.3-0.2-0.6-0.3-1c-0.8,0.8-1.7,1.3-2.9,1.3c-1.1,0-2.1-0.3-2.8-1s-1.1-1.5-1.1-2.5
		c0-1.2,0.5-2.2,1.4-2.8c0.9-0.7,2.2-1,4-1h1.4v-0.7c0-0.5-0.1-1-0.4-1.3s-0.7-0.5-1.3-0.5c-0.5,0-0.9,0.1-1.2,0.4s-0.4,0.6-0.4,1
		h-3.1c0-0.7,0.2-1.3,0.6-1.9s1-1,1.8-1.3c0.8-0.3,1.6-0.5,2.6-0.5c1.4,0,2.6,0.4,3.4,1.1c0.8,0.7,1.3,1.7,1.3,3v5
		c0,1.1,0.2,1.9,0.5,2.5v0.2H142.9z M140.3,18c0.5,0,0.9-0.1,1.3-0.3c0.4-0.2,0.7-0.5,0.9-0.8v-2h-1.2c-1.6,0-2.4,0.5-2.5,1.6l0,0.2
		c0,0.4,0.1,0.7,0.4,1C139.5,17.9,139.8,18,140.3,18z"/>
	<path class="st1" d="M158.4,14.4c0,1.9-0.4,3.3-1.2,4.4c-0.8,1-1.9,1.6-3.3,1.6c-1.3,0-2.3-0.5-3-1.5l-0.1,1.2h-2.8V3.6h3.1v5.9
		c0.7-0.8,1.7-1.3,2.8-1.3c1.4,0,2.5,0.5,3.3,1.6c0.8,1,1.2,2.5,1.2,4.4V14.4z M155.3,14.2c0-1.2-0.2-2-0.6-2.6
		c-0.4-0.5-0.9-0.8-1.7-0.8c-1,0-1.7,0.4-2,1.2v4.6c0.4,0.8,1.1,1.2,2.1,1.2c1,0,1.7-0.5,2-1.5C155.2,15.9,155.3,15.2,155.3,14.2z"
		/>
	<path class="st1" d="M166.6,16.9c0-0.4-0.2-0.7-0.6-0.9c-0.4-0.2-1-0.4-1.8-0.6c-2.8-0.6-4.1-1.8-4.1-3.5c0-1,0.4-1.9,1.3-2.6
		c0.9-0.7,2-1,3.4-1c1.5,0,2.7,0.3,3.5,1s1.3,1.6,1.3,2.7h-3.1c0-0.4-0.1-0.8-0.4-1.1c-0.3-0.3-0.7-0.4-1.3-0.4
		c-0.5,0-0.9,0.1-1.2,0.4c-0.3,0.2-0.4,0.5-0.4,0.9c0,0.3,0.2,0.6,0.5,0.8c0.3,0.2,0.9,0.4,1.6,0.5c0.8,0.2,1.4,0.3,2,0.5
		c1.6,0.6,2.5,1.6,2.5,3.1c0,1.1-0.5,1.9-1.4,2.6c-0.9,0.7-2.1,1-3.5,1c-1,0-1.8-0.2-2.6-0.5c-0.8-0.3-1.3-0.8-1.8-1.4
		c-0.4-0.6-0.6-1.3-0.6-2h2.9c0,0.6,0.2,1,0.6,1.3s0.9,0.4,1.5,0.4c0.6,0,1-0.1,1.3-0.3C166.5,17.6,166.6,17.3,166.6,16.9z"/>
</g>
<g id="Gruppe_417" transform="translate(0 2.849)">
	<path id="Pfad_2790" class="st2" d="M27.9,21.3c-6.7,0-12.1-5.4-12.1-12.1S21.3-2.8,27.9-2.8S40,2.6,40,9.2
		C40,15.9,34.6,21.3,27.9,21.3z M27.9-2.2c-6.3,0-11.5,5.1-11.5,11.5c0,6.3,5.1,11.5,11.5,11.5s11.5-5.1,11.5-11.5c0,0,0,0,0,0
		C39.4,2.9,34.3-2.2,27.9-2.2L27.9-2.2z"/>
	<path id="Pfad_2791" class="st3" d="M16.2,21.3c-6.7,0-12.1-5.4-12.1-12.1S9.5-2.8,16.2-2.8S28.2,2.6,28.2,9.2
		C28.2,15.9,22.8,21.3,16.2,21.3z M16.2-2.2C9.8-2.2,4.7,2.9,4.7,9.2s5.1,11.5,11.5,11.5s11.5-5.1,11.5-11.5v0
		C27.6,2.9,22.5-2.2,16.2-2.2L16.2-2.2z"/>
	<g id="Gruppe_416" transform="translate(0 10.606)">
		<path id="Pfad_2792" class="st1" d="M16.5,5.5l-0.7-0.7c-2.4-2.4-3.6-3.6-5.1-5H0v-2.1h11.6l0.3,0.3c1.5,1.4,2.6,2.6,4.6,4.6
			l5.4-5.4l1.5,1.5L16.5,5.5z"/>
		<path id="Pfad_2793" class="st1" d="M27.3,5.5l-6.8-6.8l1.5-1.5l5.4,5.4c1.7-1.7,3.4-3.4,4.6-4.6l0.3-0.3h10.5v2.1h-9.7
			C31.7,1,29.7,3,28,4.7L27.3,5.5z"/>
	</g>
</g>
</svg>
